<svg xmlns="http://www.w3.org/2000/svg" width="1200" height="820" viewBox="0 0 1200 820" role="img" aria-labelledby="title desc">
  <title id="title">FlowGrid Memory Runtime architecture</title>
  <desc id="desc">A local demo and Managed MCP read CockroachDB judgment memory. An optional AWS Lambda and S3 path is clearly marked as not yet deployed.</desc>
  <style>
    .bg { fill: #d9e3da; }
    .panel { fill: #f4f0e7; stroke: #1e2622; stroke-width: 3; }
    .cloud { fill: #c7d6cc; stroke: #1e2622; stroke-width: 3; stroke-dasharray: 10 8; }
    .db { fill: #e06132; stroke: #1e2622; stroke-width: 3; }
    .mono { fill: #1e2622; font-family: monospace; font-size: 15px; font-weight: 700; letter-spacing: 1.1px; }
    .title { fill: #1e2622; font-family: Georgia, serif; font-size: 35px; font-weight: 700; }
    .label { fill: #1e2622; font-family: Georgia, serif; font-size: 27px; font-weight: 700; }
    .body { fill: #1e2622; font-family: Georgia, serif; font-size: 18px; }
    .small { fill: #536358; font-family: monospace; font-size: 14px; }
    .arrow { fill: none; stroke: #1e2622; stroke-width: 4; marker-end: url(#head); }
    .dash { fill: none; stroke: #1e2622; stroke-width: 4; stroke-dasharray: 12 10; marker-end: url(#head); }
  </style>
  <defs>
    <marker id="head" markerWidth="12" markerHeight="12" refX="9" refY="6" orient="auto"><path d="M0,0 L12,6 L0,12 Z" fill="#1e2622"/></marker>
  </defs>
  <rect class="bg" width="1200" height="820"/>
  <text x="62" y="68" class="mono">FLOWGRID MEMORY RUNTIME</text>
  <text x="62" y="116" class="title">A request can be remembered without being</text>
  <text x="62" y="157" class="title">authorized to rewrite the project.</text>

  <rect x="62" y="240" width="280" height="205" class="panel"/>
  <text x="88" y="280" class="mono">LOCAL DEMO</text>
  <text x="88" y="326" class="label">Browser runtime</text>
  <text x="88" y="365" class="body">D-001 confirmed</text>
  <text x="88" y="396" class="body">P-001 pending</text>
  <text x="88" y="427" class="body">D-002 supersedes safely</text>

  <rect x="460" y="220" width="300" height="265" class="db"/>
  <text x="488" y="260" class="mono">COCKROACHDB</text>
  <text x="488" y="306" class="label">Judgment memory</text>
  <text x="488" y="347" class="body">sources · decisions</text>
  <text x="488" y="379" class="body">revisions · evidence</text>
  <text x="488" y="411" class="body">handoff · audit · vectors</text>
  <text x="488" y="453" class="small">synthetic data, live vector index</text>

  <rect x="870" y="240" width="268" height="205" class="panel"/>
  <text x="896" y="280" class="mono">AGENT INSPECTION</text>
  <text x="896" y="326" class="label">Managed MCP</text>
  <text x="896" y="365" class="body">active frame</text>
  <text x="896" y="396" class="body">judgment trace</text>
  <text x="896" y="427" class="body">audit history</text>

  <path d="M342 342 H440" class="arrow"/>
  <path d="M760 342 H850" class="arrow"/>
  <text x="346" y="320" class="small">lifecycle state</text>
  <text x="770" y="320" class="small">scoped read</text>

  <rect x="242" y="610" width="330" height="142" class="cloud"/>
  <text x="268" y="647" class="mono">OPTIONAL AWS PATH</text>
  <text x="268" y="691" class="label">Lambda Memory API</text>
  <text x="268" y="724" class="body">controlled writes</text>

  <rect x="694" y="610" width="260" height="142" class="cloud"/>
  <text x="720" y="647" class="mono">OPTIONAL AWS PATH</text>
  <text x="720" y="691" class="label">Private S3</text>
  <text x="720" y="724" class="body">synthetic traces</text>

  <path d="M406 610 C430 560 520 528 588 495" class="dash"/>
  <path d="M758 610 C740 560 690 530 650 495" class="dash"/>
  <text x="460" y="560" class="small">deploy only after cost review</text>
</svg>
